<svg width="54" height="23" viewBox="0 0 54 23" fill="none" xmlns="http://www.w3.org/2000/svg">
<path d="M0 0.192001H3.744V18H0V0.192001Z" fill="#252B42"/>
<path d="M13.4628 18.192C12.1028 18.192 10.8788 17.912 9.79075 17.352C8.71875 16.776 7.87875 15.984 7.27075 14.976C6.66275 13.968 6.35875 12.824 6.35875 11.544C6.35875 10.264 6.66275 9.12 7.27075 8.112C7.87875 7.104 8.71875 6.32 9.79075 5.76C10.8788 5.184 12.1028 4.896 13.4628 4.896C14.8228 4.896 16.0387 5.184 17.1108 5.76C18.1828 6.32 19.0228 7.104 19.6308 8.112C20.2388 9.12 20.5428 10.264 20.5428 11.544C20.5428 12.824 20.2388 13.968 19.6308 14.976C19.0228 15.984 18.1828 16.776 17.1108 17.352C16.0387 17.912 14.8228 18.192 13.4628 18.192ZM13.4628 15.12C14.4228 15.12 15.2068 14.8 15.8148 14.16C16.4388 13.504 16.7508 12.632 16.7508 11.544C16.7508 10.456 16.4388 9.592 15.8148 8.952C15.2068 8.296 14.4228 7.968 13.4628 7.968C12.5028 7.968 11.7107 8.296 11.0868 8.952C10.4627 9.592 10.1508 10.456 10.1508 11.544C10.1508 12.632 10.4627 13.504 11.0868 14.16C11.7107 14.8 12.5028 15.12 13.4628 15.12Z" fill="#252B42"/>
<path d="M36.4653 5.088V15.84C36.4653 18.208 35.8493 19.968 34.6173 21.12C33.3853 22.272 31.5853 22.848 29.2173 22.848C27.9693 22.848 26.7853 22.696 25.6653 22.392C24.5453 22.088 23.6173 21.648 22.8813 21.072L24.3693 18.384C24.9133 18.832 25.6013 19.184 26.4333 19.44C27.2653 19.712 28.0973 19.848 28.9293 19.848C30.2253 19.848 31.1773 19.552 31.7853 18.96C32.4093 18.384 32.7213 17.504 32.7213 16.32V15.768C31.7453 16.84 30.3853 17.376 28.6413 17.376C27.4573 17.376 26.3693 17.12 25.3773 16.608C24.4013 16.08 23.6253 15.344 23.0493 14.4C22.4733 13.456 22.1853 12.368 22.1853 11.136C22.1853 9.904 22.4733 8.816 23.0493 7.872C23.6253 6.928 24.4013 6.2 25.3773 5.688C26.3693 5.16 27.4573 4.896 28.6413 4.896C30.5133 4.896 31.9373 5.512 32.9133 6.744V5.088H36.4653ZM29.3853 14.304C30.3773 14.304 31.1853 14.016 31.8093 13.44C32.4493 12.848 32.7693 12.08 32.7693 11.136C32.7693 10.192 32.4493 9.432 31.8093 8.856C31.1853 8.264 30.3773 7.968 29.3853 7.968C28.3933 7.968 27.5773 8.264 26.9373 8.856C26.2973 9.432 25.9773 10.192 25.9773 11.136C25.9773 12.08 26.2973 12.848 26.9373 13.44C27.5773 14.016 28.3933 14.304 29.3853 14.304Z" fill="#252B42"/>
<path d="M46.194 18.192C44.834 18.192 43.61 17.912 42.522 17.352C41.45 16.776 40.61 15.984 40.002 14.976C39.394 13.968 39.09 12.824 39.09 11.544C39.09 10.264 39.394 9.12 40.002 8.112C40.61 7.104 41.45 6.32 42.522 5.76C43.61 5.184 44.834 4.896 46.194 4.896C47.554 4.896 48.77 5.184 49.842 5.76C50.914 6.32 51.754 7.104 52.362 8.112C52.97 9.12 53.274 10.264 53.274 11.544C53.274 12.824 52.97 13.968 52.362 14.976C51.754 15.984 50.914 16.776 49.842 17.352C48.77 17.912 47.554 18.192 46.194 18.192ZM46.194 15.12C47.154 15.12 47.938 14.8 48.546 14.16C49.17 13.504 49.482 12.632 49.482 11.544C49.482 10.456 49.17 9.592 48.546 8.952C47.938 8.296 47.154 7.968 46.194 7.968C45.234 7.968 44.442 8.296 43.818 8.952C43.194 9.592 42.882 10.456 42.882 11.544C42.882 12.632 43.194 13.504 43.818 14.16C44.442 14.8 45.234 15.12 46.194 15.12Z" fill="#252B42"/>
</svg>
